<?xml version="1.0" encoding="UTF-8" ?>
<svg version="1.1" width="85" height="85" xmlns="http://www.w3.org/2000/svg" shape-rendering="crispEdges">
<rect x="30" y="5" width="5" height="5" fill="#2A070A" />
<rect x="35" y="5" width="5" height="5" fill="#2A070A" />
<rect x="40" y="5" width="5" height="5" fill="#2A070A" />
<rect x="45" y="5" width="5" height="5" fill="#2A070A" />
<rect x="50" y="5" width="5" height="5" fill="#2A070A" />
<rect x="20" y="10" width="5" height="5" fill="#2A070A" />
<rect x="25" y="10" width="5" height="5" fill="#2A070A" />
<rect x="30" y="10" width="5" height="5" fill="#B36B5E" />
<rect x="35" y="10" width="5" height="5" fill="#FFCDBF" />
<rect x="40" y="10" width="5" height="5" fill="#FFCDBF" />
<rect x="45" y="10" width="5" height="5" fill="#FFCDBF" />
<rect x="50" y="10" width="5" height="5" fill="#B36B5E" />
<rect x="55" y="10" width="5" height="5" fill="#2A070A" />
<rect x="60" y="10" width="5" height="5" fill="#2A070A" />
<rect x="15" y="15" width="5" height="5" fill="#2A070A" />
<rect x="20" y="15" width="5" height="5" fill="#B36B5E" />
<rect x="25" y="15" width="5" height="5" fill="#FFCDBF" />
<rect x="30" y="15" width="5" height="5" fill="#FFCDBF" />
<rect x="35" y="15" width="5" height="5" fill="#FFCDBF" />
<rect x="40" y="15" width="5" height="5" fill="#FFCDBF" />
<rect x="45" y="15" width="5" height="5" fill="#FFCDBF" />
<rect x="50" y="15" width="5" height="5" fill="#FFCDBF" />
<rect x="55" y="15" width="5" height="5" fill="#FFCDBF" />
<rect x="60" y="15" width="5" height="5" fill="#B36B5E" />
<rect x="65" y="15" width="5" height="5" fill="#2A070A" />
<rect x="10" y="20" width="5" height="5" fill="#2A070A" />
<rect x="15" y="20" width="5" height="5" fill="#B36B5E" />
<rect x="20" y="20" width="5" height="5" fill="#FFCDBF" />
<rect x="25" y="20" width="5" height="5" fill="#FFCDBF" />
<rect x="30" y="20" width="5" height="5" fill="#FFCDBF" />
<rect x="35" y="20" width="5" height="5" fill="#FFCDBF" />
<rect x="40" y="20" width="5" height="5" fill="#FFCDBF" />
<rect x="45" y="20" width="5" height="5" fill="#FFCDBF" />
<rect x="50" y="20" width="5" height="5" fill="#FFCDBF" />
<rect x="55" y="20" width="5" height="5" fill="#FFCDBF" />
<rect x="60" y="20" width="5" height="5" fill="#FFCDBF" />
<rect x="65" y="20" width="5" height="5" fill="#B36B5E" />
<rect x="70" y="20" width="5" height="5" fill="#2A070A" />
<rect x="10" y="25" width="5" height="5" fill="#2A070A" />
<rect x="15" y="25" width="5" height="5" fill="#FFCDBF" />
<rect x="20" y="25" width="5" height="5" fill="#FFCDBF" />
<rect x="25" y="25" width="5" height="5" fill="#FFCDBF" />
<rect x="30" y="25" width="5" height="5" fill="#FFCDBF" />
<rect x="35" y="25" width="5" height="5" fill="#FFCDBF" />
<rect x="40" y="25" width="5" height="5" fill="#FFCDBF" />
<rect x="45" y="25" width="5" height="5" fill="#FFCDBF" />
<rect x="50" y="25" width="5" height="5" fill="#FFCDBF" />
<rect x="55" y="25" width="5" height="5" fill="#FFCDBF" />
<rect x="60" y="25" width="5" height="5" fill="#FFCDBF" />
<rect x="65" y="25" width="5" height="5" fill="#FFCDBF" />
<rect x="70" y="25" width="5" height="5" fill="#2A070A" />
<rect x="5" y="30" width="5" height="5" fill="#2A070A" />
<rect x="10" y="30" width="5" height="5" fill="#B36B5E" />
<rect x="15" y="30" width="5" height="5" fill="#FFCDBF" />
<rect x="20" y="30" width="5" height="5" fill="#FFCDBF" />
<rect x="25" y="30" width="5" height="5" fill="#FFCDBF" />
<rect x="30" y="30" width="5" height="5" fill="#FFCDBF" />
<rect x="35" y="30" width="5" height="5" fill="#FFCDBF" />
<rect x="40" y="30" width="5" height="5" fill="#FFCDBF" />
<rect x="45" y="30" width="5" height="5" fill="#FFCDBF" />
<rect x="50" y="30" width="5" height="5" fill="#FFCDBF" />
<rect x="55" y="30" width="5" height="5" fill="#FFCDBF" />
<rect x="60" y="30" width="5" height="5" fill="#FFCDBF" />
<rect x="65" y="30" width="5" height="5" fill="#FFCDBF" />
<rect x="70" y="30" width="5" height="5" fill="#B36B5E" />
<rect x="75" y="30" width="5" height="5" fill="#2A070A" />
<rect x="5" y="35" width="5" height="5" fill="#2A070A" />
<rect x="10" y="35" width="5" height="5" fill="#FFCDBF" />
<rect x="15" y="35" width="5" height="5" fill="#FFCDBF" />
<rect x="20" y="35" width="5" height="5" fill="#FFCDBF" />
<rect x="25" y="35" width="5" height="5" fill="#FFCDBF" />
<rect x="30" y="35" width="5" height="5" fill="#FFCDBF" />
<rect x="35" y="35" width="5" height="5" fill="#FFCDBF" />
<rect x="40" y="35" width="5" height="5" fill="#FFCDBF" />
<rect x="45" y="35" width="5" height="5" fill="#FFCDBF" />
<rect x="50" y="35" width="5" height="5" fill="#FFCDBF" />
<rect x="55" y="35" width="5" height="5" fill="#FFCDBF" />
<rect x="60" y="35" width="5" height="5" fill="#FFCDBF" />
<rect x="65" y="35" width="5" height="5" fill="#FFCDBF" />
<rect x="70" y="35" width="5" height="5" fill="#FFCDBF" />
<rect x="75" y="35" width="5" height="5" fill="#2A070A" />
<rect x="5" y="40" width="5" height="5" fill="#2A070A" />
<rect x="10" y="40" width="5" height="5" fill="#FFCDBF" />
<rect x="15" y="40" width="5" height="5" fill="#FFCDBF" />
<rect x="20" y="40" width="5" height="5" fill="#FFCDBF" />
<rect x="25" y="40" width="5" height="5" fill="#FFCDBF" />
<rect x="30" y="40" width="5" height="5" fill="#FFCDBF" />
<rect x="35" y="40" width="5" height="5" fill="#FFCDBF" />
<rect x="40" y="40" width="5" height="5" fill="#FFCDBF" />
<rect x="45" y="40" width="5" height="5" fill="#FFCDBF" />
<rect x="50" y="40" width="5" height="5" fill="#FFCDBF" />
<rect x="55" y="40" width="5" height="5" fill="#FFCDBF" />
<rect x="60" y="40" width="5" height="5" fill="#FFCDBF" />
<rect x="65" y="40" width="5" height="5" fill="#FFCDBF" />
<rect x="70" y="40" width="5" height="5" fill="#FFCDBF" />
<rect x="75" y="40" width="5" height="5" fill="#2A070A" />
<rect x="0" y="45" width="5" height="5" fill="#2A070A" />
<rect x="5" y="45" width="5" height="5" fill="#772832" />
<rect x="10" y="45" width="5" height="5" fill="#B36B5E" />
<rect x="15" y="45" width="5" height="5" fill="#FFCDBF" />
<rect x="20" y="45" width="5" height="5" fill="#FFCDBF" />
<rect x="25" y="45" width="5" height="5" fill="#FFCDBF" />
<rect x="30" y="45" width="5" height="5" fill="#2A070A" />
<rect x="35" y="45" width="5" height="5" fill="#FFCDBF" />
<rect x="40" y="45" width="5" height="5" fill="#FFCDBF" />
<rect x="45" y="45" width="5" height="5" fill="#FFCDBF" />
<rect x="50" y="45" width="5" height="5" fill="#2A070A" />
<rect x="55" y="45" width="5" height="5" fill="#FFCDBF" />
<rect x="60" y="45" width="5" height="5" fill="#FFCDBF" />
<rect x="65" y="45" width="5" height="5" fill="#FFCDBF" />
<rect x="70" y="45" width="5" height="5" fill="#B36B5E" />
<rect x="75" y="45" width="5" height="5" fill="#772832" />
<rect x="80" y="45" width="5" height="5" fill="#2A070A" />
<rect x="0" y="50" width="5" height="5" fill="#2A070A" />
<rect x="5" y="50" width="5" height="5" fill="#FFA59C" />
<rect x="10" y="50" width="5" height="5" fill="#772832" />
<rect x="15" y="50" width="5" height="5" fill="#FFCDBF" />
<rect x="20" y="50" width="5" height="5" fill="#FFCDBF" />
<rect x="25" y="50" width="5" height="5" fill="#FFCDBF" />
<rect x="30" y="50" width="5" height="5" fill="#2A070A" />
<rect x="35" y="50" width="5" height="5" fill="#FFCDBF" />
<rect x="40" y="50" width="5" height="5" fill="#FFCDBF" />
<rect x="45" y="50" width="5" height="5" fill="#FFCDBF" />
<rect x="50" y="50" width="5" height="5" fill="#2A070A" />
<rect x="55" y="50" width="5" height="5" fill="#FFCDBF" />
<rect x="60" y="50" width="5" height="5" fill="#FFCDBF" />
<rect x="65" y="50" width="5" height="5" fill="#FFCDBF" />
<rect x="70" y="50" width="5" height="5" fill="#772832" />
<rect x="75" y="50" width="5" height="5" fill="#FFA59C" />
<rect x="80" y="50" width="5" height="5" fill="#2A070A" />
<rect x="0" y="55" width="5" height="5" fill="#2A070A" />
<rect x="5" y="55" width="5" height="5" fill="#FFA59C" />
<rect x="10" y="55" width="5" height="5" fill="#772832" />
<rect x="15" y="55" width="5" height="5" fill="#FFCDBF" />
<rect x="20" y="55" width="5" height="5" fill="#FFA59C" />
<rect x="25" y="55" width="5" height="5" fill="#B36B5E" />
<rect x="30" y="55" width="5" height="5" fill="#B36B5E" />
<rect x="35" y="55" width="5" height="5" fill="#FFCDBF" />
<rect x="40" y="55" width="5" height="5" fill="#FFCDBF" />
<rect x="45" y="55" width="5" height="5" fill="#FFCDBF" />
<rect x="50" y="55" width="5" height="5" fill="#B36B5E" />
<rect x="55" y="55" width="5" height="5" fill="#B36B5E" />
<rect x="60" y="55" width="5" height="5" fill="#FFA59C" />
<rect x="65" y="55" width="5" height="5" fill="#FFCDBF" />
<rect x="70" y="55" width="5" height="5" fill="#772832" />
<rect x="75" y="55" width="5" height="5" fill="#FFA59C" />
<rect x="80" y="55" width="5" height="5" fill="#2A070A" />
<rect x="5" y="60" width="5" height="5" fill="#2A070A" />
<rect x="10" y="60" width="5" height="5" fill="#772832" />
<rect x="15" y="60" width="5" height="5" fill="#FFA59C" />
<rect x="20" y="60" width="5" height="5" fill="#FFCDBF" />
<rect x="25" y="60" width="5" height="5" fill="#FFCDBF" />
<rect x="30" y="60" width="5" height="5" fill="#FFCDBF" />
<rect x="35" y="60" width="5" height="5" fill="#FFA59C" />
<rect x="40" y="60" width="5" height="5" fill="#FFA59C" />
<rect x="45" y="60" width="5" height="5" fill="#FFA59C" />
<rect x="50" y="60" width="5" height="5" fill="#FFCDBF" />
<rect x="55" y="60" width="5" height="5" fill="#FFCDBF" />
<rect x="60" y="60" width="5" height="5" fill="#FFCDBF" />
<rect x="65" y="60" width="5" height="5" fill="#FFA59C" />
<rect x="70" y="60" width="5" height="5" fill="#772832" />
<rect x="75" y="60" width="5" height="5" fill="#2A070A" />
<rect x="10" y="65" width="5" height="5" fill="#2A070A" />
<rect x="15" y="65" width="5" height="5" fill="#B36B5E" />
<rect x="20" y="65" width="5" height="5" fill="#FFCDBF" />
<rect x="25" y="65" width="5" height="5" fill="#FFCDBF" />
<rect x="30" y="65" width="5" height="5" fill="#FFCDBF" />
<rect x="35" y="65" width="5" height="5" fill="#FFCDBF" />
<rect x="40" y="65" width="5" height="5" fill="#FFCDBF" />
<rect x="45" y="65" width="5" height="5" fill="#FFCDBF" />
<rect x="50" y="65" width="5" height="5" fill="#FFCDBF" />
<rect x="55" y="65" width="5" height="5" fill="#FFCDBF" />
<rect x="60" y="65" width="5" height="5" fill="#FFCDBF" />
<rect x="65" y="65" width="5" height="5" fill="#B36B5E" />
<rect x="70" y="65" width="5" height="5" fill="#2A070A" />
<rect x="10" y="70" width="5" height="5" fill="#2A070A" />
<rect x="15" y="70" width="5" height="5" fill="#2A070A" />
<rect x="20" y="70" width="5" height="5" fill="#FFA59C" />
<rect x="25" y="70" width="5" height="5" fill="#FFCDBF" />
<rect x="30" y="70" width="5" height="5" fill="#FFCDBF" />
<rect x="35" y="70" width="5" height="5" fill="#B36B5E" />
<rect x="40" y="70" width="5" height="5" fill="#B36B5E" />
<rect x="45" y="70" width="5" height="5" fill="#B36B5E" />
<rect x="50" y="70" width="5" height="5" fill="#FFCDBF" />
<rect x="55" y="70" width="5" height="5" fill="#FFCDBF" />
<rect x="60" y="70" width="5" height="5" fill="#FFA59C" />
<rect x="65" y="70" width="5" height="5" fill="#2A070A" />
<rect x="70" y="70" width="5" height="5" fill="#2A070A" />
<rect x="15" y="75" width="5" height="5" fill="#2A070A" />
<rect x="20" y="75" width="5" height="5" fill="#2A070A" />
<rect x="25" y="75" width="5" height="5" fill="#FFA59C" />
<rect x="30" y="75" width="5" height="5" fill="#FFA59C" />
<rect x="35" y="75" width="5" height="5" fill="#FFCDBF" />
<rect x="40" y="75" width="5" height="5" fill="#FFCDBF" />
<rect x="45" y="75" width="5" height="5" fill="#FFCDBF" />
<rect x="50" y="75" width="5" height="5" fill="#FFA59C" />
<rect x="55" y="75" width="5" height="5" fill="#FFA59C" />
<rect x="60" y="75" width="5" height="5" fill="#2A070A" />
<rect x="65" y="75" width="5" height="5" fill="#2A070A" />
</svg>