<?xml version="1.0" encoding="UTF-8" ?>
<svg version="1.1" width="160" height="160" xmlns="http://www.w3.org/2000/svg" shape-rendering="crispEdges">
<rect x="70" y="15" width="5" height="5" fill="#7D2F24" />
<rect x="75" y="15" width="5" height="5" fill="#813224" />
<rect x="80" y="15" width="5" height="5" fill="#7D2F24" />
<rect x="85" y="15" width="5" height="5" fill="#813224" />
<rect x="90" y="15" width="5" height="5" fill="#7D2F24" />
<rect x="95" y="15" width="5" height="5" fill="#813224" />
<rect x="55" y="20" width="5" height="5" fill="#7D2F24" />
<rect x="60" y="20" width="5" height="5" fill="#7D2F24" />
<rect x="65" y="20" width="5" height="5" fill="#7D2F24" />
<rect x="70" y="20" width="5" height="5" fill="#7D2F24" />
<rect x="75" y="20" width="5" height="5" fill="#7D2F24" />
<rect x="80" y="20" width="5" height="5" fill="#7D2F24" />
<rect x="85" y="20" width="5" height="5" fill="#7D2F24" />
<rect x="90" y="20" width="5" height="5" fill="#813224" />
<rect x="95" y="20" width="5" height="5" fill="#7D2F24" />
<rect x="100" y="20" width="5" height="5" fill="#813224" />
<rect x="105" y="20" width="5" height="5" fill="#5A1C2B" />
<rect x="50" y="25" width="5" height="5" fill="#9A3C2F" />
<rect x="55" y="25" width="5" height="5" fill="#813224" />
<rect x="60" y="25" width="5" height="5" fill="#7D2F24" />
<rect x="65" y="25" width="5" height="5" fill="#813224" />
<rect x="70" y="25" width="5" height="5" fill="#7D2F24" />
<rect x="75" y="25" width="5" height="5" fill="#813224" />
<rect x="80" y="25" width="5" height="5" fill="#7D2F24" />
<rect x="85" y="25" width="5" height="5" fill="#813224" />
<rect x="90" y="25" width="5" height="5" fill="#7D2F24" />
<rect x="95" y="25" width="5" height="5" fill="#813224" />
<rect x="100" y="25" width="5" height="5" fill="#7D2F24" />
<rect x="105" y="25" width="5" height="5" fill="#813224" />
<rect x="110" y="25" width="5" height="5" fill="#5A1C2B" />
<rect x="115" y="25" width="5" height="5" fill="#430E1B" />
<rect x="120" y="25" width="5" height="5" fill="#3B0E1B" />
<rect x="40" y="30" width="5" height="5" fill="#5A1C2B" />
<rect x="45" y="30" width="5" height="5" fill="#9A3C2F" />
<rect x="50" y="30" width="5" height="5" fill="#9A3C2F" />
<rect x="55" y="30" width="5" height="5" fill="#7D2F24" />
<rect x="60" y="30" width="5" height="5" fill="#7D2F24" />
<rect x="65" y="30" width="5" height="5" fill="#7D2F24" />
<rect x="70" y="30" width="5" height="5" fill="#7D2F24" />
<rect x="75" y="30" width="5" height="5" fill="#7D2F24" />
<rect x="80" y="30" width="5" height="5" fill="#7D2F24" />
<rect x="85" y="30" width="5" height="5" fill="#7D2F24" />
<rect x="90" y="30" width="5" height="5" fill="#7D2F24" />
<rect x="95" y="30" width="5" height="5" fill="#7D2F24" />
<rect x="100" y="30" width="5" height="5" fill="#813224" />
<rect x="105" y="30" width="5" height="5" fill="#7D2F24" />
<rect x="110" y="30" width="5" height="5" fill="#813224" />
<rect x="115" y="30" width="5" height="5" fill="#5A1C2B" />
<rect x="120" y="30" width="5" height="5" fill="#430E1B" />
<rect x="125" y="30" width="5" height="5" fill="#5A1C2B" />
<rect x="35" y="35" width="5" height="5" fill="#5A1C2B" />
<rect x="40" y="35" width="5" height="5" fill="#5A1C2B" />
<rect x="45" y="35" width="5" height="5" fill="#3B0E1B" />
<rect x="50" y="35" width="5" height="5" fill="#9A3C2F" />
<rect x="55" y="35" width="5" height="5" fill="#9E4533" />
<rect x="60" y="35" width="5" height="5" fill="#7D2F24" />
<rect x="65" y="35" width="5" height="5" fill="#813224" />
<rect x="70" y="35" width="5" height="5" fill="#7D2F24" />
<rect x="75" y="35" width="5" height="5" fill="#813224" />
<rect x="80" y="35" width="5" height="5" fill="#7D2F24" />
<rect x="85" y="35" width="5" height="5" fill="#813224" />
<rect x="90" y="35" width="5" height="5" fill="#7D2F24" />
<rect x="95" y="35" width="5" height="5" fill="#813224" />
<rect x="100" y="35" width="5" height="5" fill="#7D2F24" />
<rect x="105" y="35" width="5" height="5" fill="#813224" />
<rect x="110" y="35" width="5" height="5" fill="#5A1C2B" />
<rect x="115" y="35" width="5" height="5" fill="#621C2B" />
<rect x="120" y="35" width="5" height="5" fill="#5A1C2B" />
<rect x="125" y="35" width="5" height="5" fill="#621C2B" />
<rect x="130" y="35" width="5" height="5" fill="#5A1C2B" />
<rect x="30" y="40" width="5" height="5" fill="#5A1C2B" />
<rect x="35" y="40" width="5" height="5" fill="#5A1C2B" />
<rect x="40" y="40" width="5" height="5" fill="#3B0E1B" />
<rect x="45" y="40" width="5" height="5" fill="#5A1C2B" />
<rect x="50" y="40" width="5" height="5" fill="#9A3C2F" />
<rect x="55" y="40" width="5" height="5" fill="#9A3C2F" />
<rect x="60" y="40" width="5" height="5" fill="#9A3C2F" />
<rect x="65" y="40" width="5" height="5" fill="#7D2F24" />
<rect x="70" y="40" width="5" height="5" fill="#813224" />
<rect x="75" y="40" width="5" height="5" fill="#7D2F24" />
<rect x="80" y="40" width="5" height="5" fill="#7D2F24" />
<rect x="85" y="40" width="5" height="5" fill="#7D2F24" />
<rect x="90" y="40" width="5" height="5" fill="#813224" />
<rect x="95" y="40" width="5" height="5" fill="#7D2F24" />
<rect x="100" y="40" width="5" height="5" fill="#813224" />
<rect x="105" y="40" width="5" height="5" fill="#7D2F24" />
<rect x="110" y="40" width="5" height="5" fill="#813224" />
<rect x="115" y="40" width="5" height="5" fill="#7D2F24" />
<rect x="120" y="40" width="5" height="5" fill="#813224" />
<rect x="125" y="40" width="5" height="5" fill="#5A1C2B" />
<rect x="130" y="40" width="5" height="5" fill="#813224" />
<rect x="135" y="40" width="5" height="5" fill="#7D2F24" />
<rect x="25" y="45" width="5" height="5" fill="#5A1C2B" />
<rect x="30" y="45" width="5" height="5" fill="#5A1C2B" />
<rect x="35" y="45" width="5" height="5" fill="#3B0E1B" />
<rect x="40" y="45" width="5" height="5" fill="#5A1C2B" />
<rect x="45" y="45" width="5" height="5" fill="#7D2F24" />
<rect x="50" y="45" width="5" height="5" fill="#9A3C2F" />
<rect x="55" y="45" width="5" height="5" fill="#9E4533" />
<rect x="60" y="45" width="5" height="5" fill="#9A3C2F" />
<rect x="65" y="45" width="5" height="5" fill="#9E4533" />
<rect x="70" y="45" width="5" height="5" fill="#CF6F58" />
<rect x="75" y="45" width="5" height="5" fill="#CF735F" />
<rect x="80" y="45" width="5" height="5" fill="#CF6F58" />
<rect x="85" y="45" width="5" height="5" fill="#813224" />
<rect x="90" y="45" width="5" height="5" fill="#7D2F24" />
<rect x="95" y="45" width="5" height="5" fill="#CF735F" />
<rect x="100" y="45" width="5" height="5" fill="#7D2F24" />
<rect x="105" y="45" width="5" height="5" fill="#813224" />
<rect x="110" y="45" width="5" height="5" fill="#7D2F24" />
<rect x="115" y="45" width="5" height="5" fill="#813224" />
<rect x="120" y="45" width="5" height="5" fill="#7D2F24" />
<rect x="125" y="45" width="5" height="5" fill="#430E1B" />
<rect x="130" y="45" width="5" height="5" fill="#621C2B" />
<rect x="135" y="45" width="5" height="5" fill="#813224" />
<rect x="25" y="50" width="5" height="5" fill="#5A1C2B" />
<rect x="30" y="50" width="5" height="5" fill="#3B0E1B" />
<rect x="35" y="50" width="5" height="5" fill="#5A1C2B" />
<rect x="40" y="50" width="5" height="5" fill="#7D2F24" />
<rect x="45" y="50" width="5" height="5" fill="#7D2F24" />
<rect x="50" y="50" width="5" height="5" fill="#7D2F24" />
<rect x="55" y="50" width="5" height="5" fill="#9A3C2F" />
<rect x="60" y="50" width="5" height="5" fill="#5A1C2B" />
<rect x="65" y="50" width="5" height="5" fill="#5A1C2B" />
<rect x="70" y="50" width="5" height="5" fill="#9A3C2F" />
<rect x="75" y="50" width="5" height="5" fill="#9A3C2F" />
<rect x="80" y="50" width="5" height="5" fill="#813224" />
<rect x="85" y="50" width="5" height="5" fill="#7D2F24" />
<rect x="90" y="50" width="5" height="5" fill="#CF6F58" />
<rect x="95" y="50" width="5" height="5" fill="#7D2F24" />
<rect x="100" y="50" width="5" height="5" fill="#621C2B" />
<rect x="105" y="50" width="5" height="5" fill="#7D2F24" />
<rect x="110" y="50" width="5" height="5" fill="#621C2B" />
<rect x="115" y="50" width="5" height="5" fill="#1C0F1A" />
<rect x="120" y="50" width="5" height="5" fill="#813224" />
<rect x="125" y="50" width="5" height="5" fill="#3B0E1B" />
<rect x="130" y="50" width="5" height="5" fill="#430E1B" />
<rect x="135" y="50" width="5" height="5" fill="#7D2F24" />
<rect x="140" y="50" width="5" height="5" fill="#9E4533" />
<rect x="25" y="55" width="5" height="5" fill="#5A1C2B" />
<rect x="30" y="55" width="5" height="5" fill="#3B0E1B" />
<rect x="35" y="55" width="5" height="5" fill="#7D2F24" />
<rect x="40" y="55" width="5" height="5" fill="#7D2F24" />
<rect x="45" y="55" width="5" height="5" fill="#5A1C2B" />
<rect x="50" y="55" width="5" height="5" fill="#3B0E1B" />
<rect x="55" y="55" width="5" height="5" fill="#621C2B" />
<rect x="60" y="55" width="5" height="5" fill="#5A1C2B" />
<rect x="65" y="55" width="5" height="5" fill="#621C2B" />
<rect x="70" y="55" width="5" height="5" fill="#9A3C2F" />
<rect x="75" y="55" width="5" height="5" fill="#9E4533" />
<rect x="80" y="55" width="5" height="5" fill="#9A3C2F" />
<rect x="85" y="55" width="5" height="5" fill="#9E4533" />
<rect x="90" y="55" width="5" height="5" fill="#9A3C2F" />
<rect x="95" y="55" width="5" height="5" fill="#621C2B" />
<rect x="100" y="55" width="5" height="5" fill="#1C0F1A" />
<rect x="105" y="55" width="5" height="5" fill="#813224" />
<rect x="110" y="55" width="5" height="5" fill="#1C0F1A" />
<rect x="115" y="55" width="5" height="5" fill="#1C0F1A" />
<rect x="120" y="55" width="5" height="5" fill="#7D2F24" />
<rect x="125" y="55" width="5" height="5" fill="#813224" />
<rect x="130" y="55" width="5" height="5" fill="#7D2F24" />
<rect x="135" y="55" width="5" height="5" fill="#9E4533" />
<rect x="140" y="55" width="5" height="5" fill="#9E4533" />
<rect x="145" y="55" width="5" height="5" fill="#9E4533" />
<rect x="20" y="60" width="5" height="5" fill="#3B0E1B" />
<rect x="25" y="60" width="5" height="5" fill="#5A1C2B" />
<rect x="30" y="60" width="5" height="5" fill="#3B0E1B" />
<rect x="35" y="60" width="5" height="5" fill="#3B0E1B" />
<rect x="40" y="60" width="5" height="5" fill="#3B0E1B" />
<rect x="45" y="60" width="5" height="5" fill="#3B0E1B" />
<rect x="50" y="60" width="5" height="5" fill="#5A1C2B" />
<rect x="55" y="60" width="5" height="5" fill="#7D2F24" />
<rect x="60" y="60" width="5" height="5" fill="#7D2F24" />
<rect x="65" y="60" width="5" height="5" fill="#7D2F24" />
<rect x="70" y="60" width="5" height="5" fill="#9E4533" />
<rect x="75" y="60" width="5" height="5" fill="#5A1C2B" />
<rect x="80" y="60" width="5" height="5" fill="#5A1C2B" />
<rect x="85" y="60" width="5" height="5" fill="#7D2F24" />
<rect x="90" y="60" width="5" height="5" fill="#430E1B" />
<rect x="95" y="60" width="5" height="5" fill="#1C0F1A" />
<rect x="100" y="60" width="5" height="5" fill="#7C3B39" />
<rect x="105" y="60" width="5" height="5" fill="#5A1C2B" />
<rect x="110" y="60" width="5" height="5" fill="#B77A4F" />
<rect x="115" y="60" width="5" height="5" fill="#B57347" />
<rect x="120" y="60" width="5" height="5" fill="#9E4533" />
<rect x="125" y="60" width="5" height="5" fill="#9A3C2F" />
<rect x="130" y="60" width="5" height="5" fill="#9E4533" />
<rect x="135" y="60" width="5" height="5" fill="#9A3C2F" />
<rect x="140" y="60" width="5" height="5" fill="#9E4533" />
<rect x="145" y="60" width="5" height="5" fill="#9A3C2F" />
<rect x="20" y="65" width="5" height="5" fill="#3B0E1B" />
<rect x="25" y="65" width="5" height="5" fill="#5A1C2B" />
<rect x="30" y="65" width="5" height="5" fill="#5A1C2B" />
<rect x="35" y="65" width="5" height="5" fill="#5A1C2B" />
<rect x="40" y="65" width="5" height="5" fill="#5A1C2B" />
<rect x="45" y="65" width="5" height="5" fill="#621C2B" />
<rect x="50" y="65" width="5" height="5" fill="#5A1C2B" />
<rect x="55" y="65" width="5" height="5" fill="#813224" />
<rect x="60" y="65" width="5" height="5" fill="#7D2F24" />
<rect x="65" y="65" width="5" height="5" fill="#621C2B" />
<rect x="70" y="65" width="5" height="5" fill="#5A1C2B" />
<rect x="75" y="65" width="5" height="5" fill="#813224" />
<rect x="80" y="65" width="5" height="5" fill="#7D2F24" />
<rect x="85" y="65" width="5" height="5" fill="#350F29" />
<rect x="90" y="65" width="5" height="5" fill="#763434" />
<rect x="95" y="65" width="5" height="5" fill="#813224" />
<rect x="100" y="65" width="5" height="5" fill="#5A1C2B" />
<rect x="105" y="65" width="5" height="5" fill="#D2A97D" />
<rect x="110" y="65" width="5" height="5" fill="#D2BF96" />
<rect x="115" y="65" width="5" height="5" fill="#D2A97D" />
<rect x="120" y="65" width="5" height="5" fill="#9A3C2F" />
<rect x="125" y="65" width="5" height="5" fill="#9E4533" />
<rect x="130" y="65" width="5" height="5" fill="#813224" />
<rect x="135" y="65" width="5" height="5" fill="#813224" />
<rect x="140" y="65" width="5" height="5" fill="#621C2B" />
<rect x="145" y="65" width="5" height="5" fill="#813224" />
<rect x="10" y="70" width="5" height="5" fill="#3B0E1B" />
<rect x="15" y="70" width="5" height="5" fill="#5A1C2B" />
<rect x="20" y="70" width="5" height="5" fill="#3B0E1B" />
<rect x="25" y="70" width="5" height="5" fill="#3B0E1B" />
<rect x="30" y="70" width="5" height="5" fill="#5A1C2B" />
<rect x="35" y="70" width="5" height="5" fill="#5A1C2B" />
<rect x="40" y="70" width="5" height="5" fill="#5A1C2B" />
<rect x="45" y="70" width="5" height="5" fill="#3B0E1B" />
<rect x="50" y="70" width="5" height="5" fill="#7D2F24" />
<rect x="55" y="70" width="5" height="5" fill="#7D2F24" />
<rect x="60" y="70" width="5" height="5" fill="#7D2F24" />
<rect x="65" y="70" width="5" height="5" fill="#3B0E1B" />
<rect x="70" y="70" width="5" height="5" fill="#7D2F24" />
<rect x="75" y="70" width="5" height="5" fill="#5A1C2B" />
<rect x="80" y="70" width="5" height="5" fill="#1C0F1A" />
<rect x="85" y="70" width="5" height="5" fill="#763434" />
<rect x="90" y="70" width="5" height="5" fill="#7D2F24" />
<rect x="95" y="70" width="5" height="5" fill="#5A1C2B" />
<rect x="100" y="70" width="5" height="5" fill="#D2A97D" />
<rect x="105" y="70" width="5" height="5" fill="#D2BF96" />
<rect x="110" y="70" width="5" height="5" fill="#D2C198" />
<rect x="115" y="70" width="5" height="5" fill="#D2A779" />
<rect x="120" y="70" width="5" height="5" fill="#813224" />
<rect x="125" y="70" width="5" height="5" fill="#7D2F24" />
<rect x="130" y="70" width="5" height="5" fill="#813224" />
<rect x="135" y="70" width="5" height="5" fill="#7D2F24" />
<rect x="140" y="70" width="5" height="5" fill="#621C2B" />
<rect x="145" y="70" width="5" height="5" fill="#7D2F24" />
<rect x="5" y="75" width="5" height="5" fill="#5A1C2B" />
<rect x="10" y="75" width="5" height="5" fill="#5A1C2B" />
<rect x="15" y="75" width="5" height="5" fill="#5A1C2B" />
<rect x="20" y="75" width="5" height="5" fill="#5A1C2B" />
<rect x="25" y="75" width="5" height="5" fill="#5A1C2B" />
<rect x="30" y="75" width="5" height="5" fill="#5A1C2B" />
<rect x="35" y="75" width="5" height="5" fill="#5A1C2B" />
<rect x="40" y="75" width="5" height="5" fill="#3B0E1B" />
<rect x="45" y="75" width="5" height="5" fill="#5A1C2B" />
<rect x="50" y="75" width="5" height="5" fill="#7D2F24" />
<rect x="55" y="75" width="5" height="5" fill="#621C2B" />
<rect x="60" y="75" width="5" height="5" fill="#3B0E1B" />
<rect x="65" y="75" width="5" height="5" fill="#621C2B" />
<rect x="70" y="75" width="5" height="5" fill="#5A1C2B" />
<rect x="75" y="75" width="5" height="5" fill="#1C0F1A" />
<rect x="80" y="75" width="5" height="5" fill="#310F29" />
<rect x="85" y="75" width="5" height="5" fill="#621C2B" />
<rect x="90" y="75" width="5" height="5" fill="#1C0F1A" />
<rect x="95" y="75" width="5" height="5" fill="#430E1B" />
<rect x="100" y="75" width="5" height="5" fill="#D2A779" />
<rect x="105" y="75" width="5" height="5" fill="#D2CEA5" />
<rect x="110" y="75" width="5" height="5" fill="#D2BF96" />
<rect x="115" y="75" width="5" height="5" fill="#D2A97D" />
<rect x="120" y="75" width="5" height="5" fill="#7D2F24" />
<rect x="125" y="75" width="5" height="5" fill="#813224" />
<rect x="130" y="75" width="5" height="5" fill="#7D2F24" />
<rect x="135" y="75" width="5" height="5" fill="#813224" />
<rect x="140" y="75" width="5" height="5" fill="#621C2B" />
<rect x="145" y="75" width="5" height="5" fill="#813224" />
<rect x="5" y="80" width="5" height="5" fill="#5A1C2B" />
<rect x="10" y="80" width="5" height="5" fill="#5A1C2B" />
<rect x="15" y="80" width="5" height="5" fill="#5A1C2B" />
<rect x="20" y="80" width="5" height="5" fill="#5A1C2B" />
<rect x="25" y="80" width="5" height="5" fill="#5A1C2B" />
<rect x="30" y="80" width="5" height="5" fill="#5A1C2B" />
<rect x="35" y="80" width="5" height="5" fill="#3B0E1B" />
<rect x="40" y="80" width="5" height="5" fill="#5A1C2B" />
<rect x="45" y="80" width="5" height="5" fill="#7D2F24" />
<rect x="50" y="80" width="5" height="5" fill="#7D2F24" />
<rect x="55" y="80" width="5" height="5" fill="#3B0E1B" />
<rect x="60" y="80" width="5" height="5" fill="#3B0E1B" />
<rect x="65" y="80" width="5" height="5" fill="#5A1C2B" />
<rect x="70" y="80" width="5" height="5" fill="#1C0F1A" />
<rect x="75" y="80" width="5" height="5" fill="#310F29" />
<rect x="80" y="80" width="5" height="5" fill="#763434" />
<rect x="85" y="80" width="5" height="5" fill="#1C0F1A" />
<rect x="90" y="80" width="5" height="5" fill="#621C2B" />
<rect x="95" y="80" width="5" height="5" fill="#B57347" />
<rect x="100" y="80" width="5" height="5" fill="#430E1B" />
<rect x="105" y="80" width="5" height="5" fill="#D2BF96" />
<rect x="110" y="80" width="5" height="5" fill="#D2CEA5" />
<rect x="115" y="80" width="5" height="5" fill="#D2BF96" />
<rect x="120" y="80" width="5" height="5" fill="#813224" />
<rect x="125" y="80" width="5" height="5" fill="#7D2F24" />
<rect x="130" y="80" width="5" height="5" fill="#813224" />
<rect x="135" y="80" width="5" height="5" fill="#7D2F24" />
<rect x="140" y="80" width="5" height="5" fill="#621C2B" />
<rect x="145" y="80" width="5" height="5" fill="#7D2F24" />
<rect x="5" y="85" width="5" height="5" fill="#5A1C2B" />
<rect x="10" y="85" width="5" height="5" fill="#5A1C2B" />
<rect x="15" y="85" width="5" height="5" fill="#5A1C2B" />
<rect x="20" y="85" width="5" height="5" fill="#5A1C2B" />
<rect x="25" y="85" width="5" height="5" fill="#5A1C2B" />
<rect x="30" y="85" width="5" height="5" fill="#3B0E1B" />
<rect x="35" y="85" width="5" height="5" fill="#5A1C2B" />
<rect x="40" y="85" width="5" height="5" fill="#3B0E1B" />
<rect x="45" y="85" width="5" height="5" fill="#430E1B" />
<rect x="50" y="85" width="5" height="5" fill="#1C0F1A" />
<rect x="55" y="85" width="5" height="5" fill="#430E1B" />
<rect x="60" y="85" width="5" height="5" fill="#5A1C2B" />
<rect x="65" y="85" width="5" height="5" fill="#0F0F1A" />
<rect x="70" y="85" width="5" height="5" fill="#310F29" />
<rect x="75" y="85" width="5" height="5" fill="#7C3B39" />
<rect x="80" y="85" width="5" height="5" fill="#5A1C2B" />
<rect x="85" y="85" width="5" height="5" fill="#621C2B" />
<rect x="90" y="85" width="5" height="5" fill="#898C97" />
<rect x="95" y="85" width="5" height="5" fill="#D2CEA5" />
<rect x="100" y="85" width="5" height="5" fill="#0F0F1A" />
<rect x="105" y="85" width="5" height="5" fill="#813224" />
<rect x="110" y="85" width="5" height="5" fill="#D2C198" />
<rect x="115" y="85" width="5" height="5" fill="#D2C198" />
<rect x="120" y="85" width="5" height="5" fill="#B57347" />
<rect x="125" y="85" width="5" height="5" fill="#813224" />
<rect x="130" y="85" width="5" height="5" fill="#813224" />
<rect x="135" y="85" width="5" height="5" fill="#813224" />
<rect x="140" y="85" width="5" height="5" fill="#621C2B" />
<rect x="5" y="90" width="5" height="5" fill="#5A1C2B" />
<rect x="10" y="90" width="5" height="5" fill="#5A1C2B" />
<rect x="15" y="90" width="5" height="5" fill="#5A1C2B" />
<rect x="20" y="90" width="5" height="5" fill="#5A1C2B" />
<rect x="25" y="90" width="5" height="5" fill="#5A1C2B" />
<rect x="30" y="90" width="5" height="5" fill="#3B0E1B" />
<rect x="35" y="90" width="5" height="5" fill="#3B0E1B" />
<rect x="40" y="90" width="5" height="5" fill="#1C0F1A" />
<rect x="45" y="90" width="5" height="5" fill="#1C0F1A" />
<rect x="50" y="90" width="5" height="5" fill="#3B0E1B" />
<rect x="55" y="90" width="5" height="5" fill="#5A1C2B" />
<rect x="60" y="90" width="5" height="5" fill="#1C0F1A" />
<rect x="65" y="90" width="5" height="5" fill="#0F0F1A" />
<rect x="70" y="90" width="5" height="5" fill="#310F29" />
<rect x="75" y="90" width="5" height="5" fill="#763434" />
<rect x="80" y="90" width="5" height="5" fill="#1C0F1A" />
<rect x="85" y="90" width="5" height="5" fill="#898C97" />
<rect x="90" y="90" width="5" height="5" fill="#898C97" />
<rect x="95" y="90" width="5" height="5" fill="#3B0E1B" />
<rect x="100" y="90" width="5" height="5" fill="#0F0F1A" />
<rect x="105" y="90" width="5" height="5" fill="#B57347" />
<rect x="110" y="90" width="5" height="5" fill="#813224" />
<rect x="115" y="90" width="5" height="5" fill="#D2A779" />
<rect x="120" y="90" width="5" height="5" fill="#D2A97D" />
<rect x="125" y="90" width="5" height="5" fill="#7D2F24" />
<rect x="130" y="90" width="5" height="5" fill="#813224" />
<rect x="135" y="90" width="5" height="5" fill="#7D2F24" />
<rect x="140" y="90" width="5" height="5" fill="#813224" />
<rect x="5" y="95" width="5" height="5" fill="#5A1C2B" />
<rect x="10" y="95" width="5" height="5" fill="#5A1C2B" />
<rect x="15" y="95" width="5" height="5" fill="#3B0E1B" />
<rect x="20" y="95" width="5" height="5" fill="#3B0E1B" />
<rect x="25" y="95" width="5" height="5" fill="#3B0E1B" />
<rect x="30" y="95" width="5" height="5" fill="#3B0E1B" />
<rect x="35" y="95" width="5" height="5" fill="#1C0F1A" />
<rect x="40" y="95" width="5" height="5" fill="#1C0F1A" />
<rect x="45" y="95" width="5" height="5" fill="#1C0F1A" />
<rect x="50" y="95" width="5" height="5" fill="#3B0E1B" />
<rect x="55" y="95" width="5" height="5" fill="#1C0F1A" />
<rect x="60" y="95" width="5" height="5" fill="#0F0F1A" />
<rect x="65" y="95" width="5" height="5" fill="#0F0F1A" />
<rect x="70" y="95" width="5" height="5" fill="#310F29" />
<rect x="75" y="95" width="5" height="5" fill="#621C2B" />
<rect x="80" y="95" width="5" height="5" fill="#B57347" />
<rect x="85" y="95" width="5" height="5" fill="#D2A97D" />
<rect x="90" y="95" width="5" height="5" fill="#D2CDA3" />
<rect x="95" y="95" width="5" height="5" fill="#621C2B" />
<rect x="100" y="95" width="5" height="5" fill="#3B0E1B" />
<rect x="105" y="95" width="5" height="5" fill="#D2A97D" />
<rect x="110" y="95" width="5" height="5" fill="#D2A779" />
<rect x="115" y="95" width="5" height="5" fill="#D2C198" />
<rect x="120" y="95" width="5" height="5" fill="#D2C198" />
<rect x="125" y="95" width="5" height="5" fill="#350F29" />
<rect x="130" y="95" width="5" height="5" fill="#7D2F24" />
<rect x="135" y="95" width="5" height="5" fill="#813224" />
<rect x="140" y="95" width="5" height="5" fill="#813224" />
<rect x="145" y="95" width="5" height="5" fill="#621C2B" />
<rect x="10" y="100" width="5" height="5" fill="#3B0E1B" />
<rect x="15" y="100" width="5" height="5" fill="#3B0E1B" />
<rect x="20" y="100" width="5" height="5" fill="#3B0E1B" />
<rect x="25" y="100" width="5" height="5" fill="#1C0F1A" />
<rect x="30" y="100" width="5" height="5" fill="#1C0F1A" />
<rect x="35" y="100" width="5" height="5" fill="#1C0F1A" />
<rect x="40" y="100" width="5" height="5" fill="#1C0F1A" />
<rect x="45" y="100" width="5" height="5" fill="#1C0F1A" />
<rect x="50" y="100" width="5" height="5" fill="#3B0E1B" />
<rect x="55" y="100" width="5" height="5" fill="#0F0F1A" />
<rect x="60" y="100" width="5" height="5" fill="#0F0F1A" />
<rect x="65" y="100" width="5" height="5" fill="#1C0F1A" />
<rect x="70" y="100" width="5" height="5" fill="#430E1B" />
<rect x="75" y="100" width="5" height="5" fill="#763434" />
<rect x="80" y="100" width="5" height="5" fill="#D2A779" />
<rect x="85" y="100" width="5" height="5" fill="#D2BF96" />
<rect x="90" y="100" width="5" height="5" fill="#D2C198" />
<rect x="95" y="100" width="5" height="5" fill="#D2BF96" />
<rect x="100" y="100" width="5" height="5" fill="#D2A97D" />
<rect x="105" y="100" width="5" height="5" fill="#D2A779" />
<rect x="110" y="100" width="5" height="5" fill="#D2A97D" />
<rect x="115" y="100" width="5" height="5" fill="#D2BF96" />
<rect x="120" y="100" width="5" height="5" fill="#B77A4F" />
<rect x="125" y="100" width="5" height="5" fill="#0F0F1A" />
<rect x="130" y="100" width="5" height="5" fill="#1C0F1A" />
<rect x="135" y="100" width="5" height="5" fill="#7D2F24" />
<rect x="140" y="100" width="5" height="5" fill="#813224" />
<rect x="145" y="100" width="5" height="5" fill="#7D2F24" />
<rect x="10" y="105" width="5" height="5" fill="#3B0E1B" />
<rect x="15" y="105" width="5" height="5" fill="#3B0E1B" />
<rect x="20" y="105" width="5" height="5" fill="#3B0E1B" />
<rect x="25" y="105" width="5" height="5" fill="#5A1C2B" />
<rect x="30" y="105" width="5" height="5" fill="#1C0F1A" />
<rect x="35" y="105" width="5" height="5" fill="#1C0F1A" />
<rect x="40" y="105" width="5" height="5" fill="#1C0F1A" />
<rect x="45" y="105" width="5" height="5" fill="#430E1B" />
<rect x="50" y="105" width="5" height="5" fill="#0F0F1A" />
<rect x="55" y="105" width="5" height="5" fill="#0F0F1A" />
<rect x="60" y="105" width="5" height="5" fill="#310F29" />
<rect x="65" y="105" width="5" height="5" fill="#430E1B" />
<rect x="70" y="105" width="5" height="5" fill="#5A1C2B" />
<rect x="75" y="105" width="5" height="5" fill="#B77A4F" />
<rect x="80" y="105" width="5" height="5" fill="#D2A779" />
<rect x="85" y="105" width="5" height="5" fill="#D2A97D" />
<rect x="90" y="105" width="5" height="5" fill="#D2A779" />
<rect x="95" y="105" width="5" height="5" fill="#D2A97D" />
<rect x="100" y="105" width="5" height="5" fill="#D2A779" />
<rect x="105" y="105" width="5" height="5" fill="#D2A97D" />
<rect x="110" y="105" width="5" height="5" fill="#D2A97D" />
<rect x="115" y="105" width="5" height="5" fill="#D2C198" />
<rect x="120" y="105" width="5" height="5" fill="#D2BF96" />
<rect x="125" y="105" width="5" height="5" fill="#1C0F1A" />
<rect x="130" y="105" width="5" height="5" fill="#430E1B" />
<rect x="135" y="105" width="5" height="5" fill="#621C2B" />
<rect x="140" y="105" width="5" height="5" fill="#813224" />
<rect x="145" y="105" width="5" height="5" fill="#813224" />
<rect x="150" y="105" width="5" height="5" fill="#813224" />
<rect x="15" y="110" width="5" height="5" fill="#15121B" />
<rect x="20" y="110" width="5" height="5" fill="#1C0F1A" />
<rect x="25" y="110" width="5" height="5" fill="#1C0F1A" />
<rect x="30" y="110" width="5" height="5" fill="#1C0F1A" />
<rect x="35" y="110" width="5" height="5" fill="#3B0E1B" />
<rect x="40" y="110" width="5" height="5" fill="#3B0E1B" />
<rect x="45" y="110" width="5" height="5" fill="#1C0F1A" />
<rect x="50" y="110" width="5" height="5" fill="#0F0F1A" />
<rect x="55" y="110" width="5" height="5" fill="#310F29" />
<rect x="60" y="110" width="5" height="5" fill="#5A1C2B" />
<rect x="65" y="110" width="5" height="5" fill="#5A1C2B" />
<rect x="70" y="110" width="5" height="5" fill="#5A1C2B" />
<rect x="75" y="110" width="5" height="5" fill="#5A1C2B" />
<rect x="80" y="110" width="5" height="5" fill="#813224" />
<rect x="85" y="110" width="5" height="5" fill="#5A1C2B" />
<rect x="90" y="110" width="5" height="5" fill="#D2A779" />
<rect x="95" y="110" width="5" height="5" fill="#D2A779" />
<rect x="100" y="110" width="5" height="5" fill="#D2A97D" />
<rect x="105" y="110" width="5" height="5" fill="#D2A779" />
<rect x="110" y="110" width="5" height="5" fill="#D2A97D" />
<rect x="115" y="110" width="5" height="5" fill="#D2A779" />
<rect x="120" y="110" width="5" height="5" fill="#D2C198" />
<rect x="125" y="110" width="5" height="5" fill="#1C0F1A" />
<rect x="130" y="110" width="5" height="5" fill="#621C2B" />
<rect x="135" y="110" width="5" height="5" fill="#3B0E1B" />
<rect x="25" y="115" width="5" height="5" fill="#1C0F1A" />
<rect x="30" y="115" width="5" height="5" fill="#5A1C2B" />
<rect x="35" y="115" width="5" height="5" fill="#621C2B" />
<rect x="40" y="115" width="5" height="5" fill="#1C0F1A" />
<rect x="45" y="115" width="5" height="5" fill="#1C0F1A" />
<rect x="50" y="115" width="5" height="5" fill="#0F0F1A" />
<rect x="55" y="115" width="5" height="5" fill="#350F29" />
<rect x="60" y="115" width="5" height="5" fill="#3B0E1B" />
<rect x="65" y="115" width="5" height="5" fill="#813224" />
<rect x="70" y="115" width="5" height="5" fill="#7D2F24" />
<rect x="75" y="115" width="5" height="5" fill="#621C2B" />
<rect x="80" y="115" width="5" height="5" fill="#B57347" />
<rect x="85" y="115" width="5" height="5" fill="#D2A97D" />
<rect x="90" y="115" width="5" height="5" fill="#7D2F24" />
<rect x="95" y="115" width="5" height="5" fill="#813224" />
<rect x="100" y="115" width="5" height="5" fill="#5A1C2B" />
<rect x="105" y="115" width="5" height="5" fill="#B77A4F" />
<rect x="110" y="115" width="5" height="5" fill="#B57347" />
<rect x="115" y="115" width="5" height="5" fill="#D2C198" />
<rect x="120" y="115" width="5" height="5" fill="#D2C198" />
<rect x="125" y="115" width="5" height="5" fill="#1C0F1A" />
<rect x="130" y="115" width="5" height="5" fill="#5A1C2B" />
<rect x="135" y="115" width="5" height="5" fill="#430E1B" />
<rect x="30" y="120" width="5" height="5" fill="#15121B" />
<rect x="35" y="120" width="5" height="5" fill="#15121B" />
<rect x="40" y="120" width="5" height="5" fill="#15121B" />
<rect x="45" y="120" width="5" height="5" fill="#1C0F1A" />
<rect x="50" y="120" width="5" height="5" fill="#0F0F1A" />
<rect x="55" y="120" width="5" height="5" fill="#763434" />
<rect x="60" y="120" width="5" height="5" fill="#3B0E1B" />
<rect x="65" y="120" width="5" height="5" fill="#7D2F24" />
<rect x="70" y="120" width="5" height="5" fill="#813224" />
<rect x="75" y="120" width="5" height="5" fill="#5A1C2B" />
<rect x="80" y="120" width="5" height="5" fill="#B77A4F" />
<rect x="85" y="120" width="5" height="5" fill="#D2A779" />
<rect x="90" y="120" width="5" height="5" fill="#350F29" />
<rect x="95" y="120" width="5" height="5" fill="#B57347" />
<rect x="100" y="120" width="5" height="5" fill="#813224" />
<rect x="105" y="120" width="5" height="5" fill="#7D2F24" />
<rect x="110" y="120" width="5" height="5" fill="#D2C198" />
<rect x="115" y="120" width="5" height="5" fill="#D2BF96" />
<rect x="120" y="120" width="5" height="5" fill="#7C3B39" />
<rect x="125" y="120" width="5" height="5" fill="#1C0F1A" />
<rect x="130" y="120" width="5" height="5" fill="#621C2B" />
<rect x="135" y="120" width="5" height="5" fill="#3B0E1B" />
<rect x="55" y="125" width="5" height="5" fill="#15121B" />
<rect x="60" y="125" width="5" height="5" fill="#5A1C2B" />
<rect x="65" y="125" width="5" height="5" fill="#621C2B" />
<rect x="70" y="125" width="5" height="5" fill="#5A1C2B" />
<rect x="75" y="125" width="5" height="5" fill="#621C2B" />
<rect x="80" y="125" width="5" height="5" fill="#7D2F24" />
<rect x="85" y="125" width="5" height="5" fill="#B77A4F" />
<rect x="90" y="125" width="5" height="5" fill="#D2A779" />
<rect x="95" y="125" width="5" height="5" fill="#350F29" />
<rect x="100" y="125" width="5" height="5" fill="#310F29" />
<rect x="105" y="125" width="5" height="5" fill="#D2A97D" />
<rect x="110" y="125" width="5" height="5" fill="#813224" />
<rect x="115" y="125" width="5" height="5" fill="#621C2B" />
<rect x="120" y="125" width="5" height="5" fill="#1C0F1A" />
<rect x="125" y="125" width="5" height="5" fill="#15121B" />
<rect x="130" y="125" width="5" height="5" fill="#1C0F1A" />
<rect x="135" y="125" width="5" height="5" fill="#430E1B" />
<rect x="60" y="130" width="5" height="5" fill="#15121B" />
<rect x="65" y="130" width="5" height="5" fill="#3B0E1B" />
<rect x="70" y="130" width="5" height="5" fill="#5A1C2B" />
<rect x="75" y="130" width="5" height="5" fill="#3B0E1B" />
<rect x="80" y="130" width="5" height="5" fill="#813224" />
<rect x="85" y="130" width="5" height="5" fill="#7D2F24" />
<rect x="90" y="130" width="5" height="5" fill="#D2A97D" />
<rect x="95" y="130" width="5" height="5" fill="#B57347" />
<rect x="100" y="130" width="5" height="5" fill="#D2A97D" />
<rect x="105" y="130" width="5" height="5" fill="#763434" />
<rect x="110" y="130" width="5" height="5" fill="#621C2B" />
<rect x="115" y="130" width="5" height="5" fill="#5A1C2B" />
<rect x="125" y="130" width="5" height="5" fill="#1C0F1A" />
<rect x="130" y="130" width="5" height="5" fill="#1C0F1A" />
<rect x="135" y="130" width="5" height="5" fill="#1C0F1A" />
<rect x="140" y="130" width="5" height="5" fill="#430E1B" />
<rect x="70" y="135" width="5" height="5" fill="#3B0E1B" />
<rect x="75" y="135" width="5" height="5" fill="#430E1B" />
<rect x="80" y="135" width="5" height="5" fill="#5A1C2B" />
<rect x="85" y="135" width="5" height="5" fill="#813224" />
<rect x="90" y="135" width="5" height="5" fill="#5A1C2B" />
<rect x="95" y="135" width="5" height="5" fill="#621C2B" />
<rect x="100" y="135" width="5" height="5" fill="#B57347" />
<rect x="105" y="135" width="5" height="5" fill="#813224" />
<rect x="110" y="135" width="5" height="5" fill="#5A1C2B" />
<rect x="80" y="140" width="5" height="5" fill="#430E1B" />
<rect x="85" y="140" width="5" height="5" fill="#5A1C2B" />
<rect x="90" y="140" width="5" height="5" fill="#430E1B" />
<rect x="95" y="140" width="5" height="5" fill="#7D2F24" />
<rect x="100" y="140" width="5" height="5" fill="#621C2B" />
</svg>