<svg xmlns="http://www.w3.org/2000/svg"  viewBox="0 0 24 24" width="96px" height="96px"><path d="M 20 2 L 4 2 C 2.898438 2 2 2.898438 2 4 L 2 20 C 2 21.101563 2.898438 22 4 22 L 20 22 C 21.101563 22 22 21.101563 22 20 L 22 4 C 22 2.898438 21.101563 2 20 2 Z M 17 17.875 C 17 17.921875 16.980469 17.972656 16.941406 18 C 16.894531 18.046875 15.515625 19 13 19 C 9.980469 19 10 15.386719 10 15 L 10 11 L 8.175781 11 C 8.078125 11 8 10.921875 8 10.824219 L 8 9.164063 C 8 9.085938 8.039063 9.027344 8.105469 9 C 8.136719 8.988281 11 7.730469 11 5.175781 C 11 5.078125 11.078125 5 11.175781 5 L 12.828125 5 C 12.921875 5 13 5.078125 13 5.175781 L 13 9 L 15.824219 9 C 15.914063 9 16 9.078125 16 9.175781 L 16 10.828125 C 16 10.921875 15.914063 11 15.824219 11 L 13 11 L 13 15 C 13 15.058594 12.90625 16.273438 14.199219 16.273438 C 15.261719 16.273438 16.71875 15.925781 16.730469 15.925781 C 16.789063 15.886719 16.855469 15.886719 16.902344 15.917969 C 16.960938 15.945313 17 16.003906 17 16.070313 Z"/></svg>